<?xml version="1.0" encoding="UTF-8"?>
<svg width="32" height="32" viewBox="0 0 32 32" fill="none" xmlns="http://www.w3.org/2000/svg">
  <!-- Sontine Favicon - Simplified version for small sizes -->
  <defs>
    <linearGradient id="faviconGradient1" x1="0%" y1="0%" x2="100%" y2="100%">
      <stop offset="0%" style="stop-color:#00B49F;stop-opacity:1" />
      <stop offset="100%" style="stop-color:#14F1B2;stop-opacity:1" />
    </linearGradient>
    <linearGradient id="faviconGradient2" x1="0%" y1="0%" x2="100%" y2="100%">
      <stop offset="0%" style="stop-color:#134158;stop-opacity:1" />
      <stop offset="100%" style="stop-color:#00B49F;stop-opacity:1" />
    </linearGradient>
  </defs>
  
  <!-- Outer Circle - Blockchain Network -->
  <circle cx="16" cy="16" r="15" fill="none" stroke="url(#faviconGradient1)" stroke-width="1.5" opacity="0.4"/>
  
  <!-- Inner Circle - Tontine Group -->
  <circle cx="16" cy="16" r="11" fill="none" stroke="url(#faviconGradient2)" stroke-width="1" opacity="0.6"/>
  
  <!-- Member Dots around circle (simplified for favicon) -->
  <circle cx="16" cy="4" r="1.5" fill="#14F1B2"/>
  <circle cx="25" cy="9" r="1.5" fill="#00B49F"/>
  <circle cx="28" cy="16" r="1.5" fill="#14F1B2"/>
  <circle cx="25" cy="23" r="1.5" fill="#00B49F"/>
  <circle cx="16" cy="28" r="1.5" fill="#14F1B2"/>
  <circle cx="7" cy="23" r="1.5" fill="#00B49F"/>
  <circle cx="4" cy="16" r="1.5" fill="#14F1B2"/>
  <circle cx="7" cy="9" r="1.5" fill="#00B49F"/>
  
  <!-- Center Logo - S -->
  <rect x="10" y="10" width="12" height="12" rx="3" fill="url(#faviconGradient1)"/>
  <text x="16" y="19" text-anchor="middle" fill="white" font-family="Arial, sans-serif" font-size="9" font-weight="bold">S</text>
  
  <!-- Connection lines (simplified) -->
  <line x1="16" y1="4" x2="16" y2="10" stroke="#8DFFF0" stroke-width="0.8" opacity="0.6"/>
  <line x1="25" y1="9" x2="22" y2="12" stroke="#8DFFF0" stroke-width="0.8" opacity="0.6"/>
  <line x1="28" y1="16" x2="22" y2="16" stroke="#8DFFF0" stroke-width="0.8" opacity="0.6"/>
  <line x1="25" y1="23" x2="22" y2="20" stroke="#8DFFF0" stroke-width="0.8" opacity="0.6"/>
</svg>
