<?xml version="1.0" encoding="UTF-8"?>
<svg width="512" height="512" viewBox="0 0 512 512" fill="none" xmlns="http://www.w3.org/2000/svg">
  <!-- Sontine PWA Icon 512x512 -->
  <defs>
    <linearGradient id="pwaLargeGradient1" x1="0%" y1="0%" x2="100%" y2="100%">
      <stop offset="0%" style="stop-color:#00B49F;stop-opacity:1" />
      <stop offset="100%" style="stop-color:#14F1B2;stop-opacity:1" />
    </linearGradient>
    <linearGradient id="pwaLargeGradient2" x1="0%" y1="0%" x2="100%" y2="100%">
      <stop offset="0%" style="stop-color:#134158;stop-opacity:1" />
      <stop offset="100%" style="stop-color:#00B49F;stop-opacity:1" />
    </linearGradient>
    <linearGradient id="pwaLargeBackground" x1="0%" y1="0%" x2="100%" y2="100%">
      <stop offset="0%" style="stop-color:#C5FFF8;stop-opacity:1" />
      <stop offset="100%" style="stop-color:#8DFFF0;stop-opacity:1" />
    </linearGradient>
  </defs>
  
  <!-- Background -->
  <rect width="512" height="512" fill="url(#pwaLargeBackground)" rx="64"/>
  
  <!-- Outer Circle - Blockchain Network -->
  <circle cx="256" cy="256" r="236" fill="none" stroke="url(#pwaLargeGradient1)" stroke-width="20" opacity="0.3"/>
  
  <!-- Inner Circle - Tontine Group -->
  <circle cx="256" cy="256" r="172" fill="none" stroke="url(#pwaLargeGradient2)" stroke-width="16" opacity="0.5"/>
  
  <!-- Member Dots around circle -->
  <circle cx="256" cy="84" r="20" fill="#14F1B2"/>
  <circle cx="378.7" cy="133.3" r="20" fill="#00B49F"/>
  <circle cx="428" cy="256" r="20" fill="#14F1B2"/>
  <circle cx="378.7" cy="378.7" r="20" fill="#00B49F"/>
  <circle cx="256" cy="428" r="20" fill="#14F1B2"/>
  <circle cx="133.3" cy="378.7" r="20" fill="#00B49F"/>
  <circle cx="84" cy="256" r="20" fill="#14F1B2"/>
  <circle cx="133.3" cy="133.3" r="20" fill="#00B49F"/>
  
  <!-- Center Logo - S -->
  <rect x="172" y="172" width="168" height="168" rx="42" fill="url(#pwaLargeGradient1)"/>
  <text x="256" y="296" text-anchor="middle" fill="white" font-family="Arial, sans-serif" font-size="128" font-weight="bold">S</text>
  
  <!-- Blockchain connection lines -->
  <line x1="256" y1="84" x2="256" y2="172" stroke="#8DFFF0" stroke-width="10" opacity="0.6"/>
  <line x1="378.7" y1="133.3" x2="340" y2="172" stroke="#8DFFF0" stroke-width="10" opacity="0.6"/>
  <line x1="428" y1="256" x2="340" y2="256" stroke="#8DFFF0" stroke-width="10" opacity="0.6"/>
  <line x1="378.7" y1="378.7" x2="340" y2="340" stroke="#8DFFF0" stroke-width="10" opacity="0.6"/>
  <line x1="256" y1="428" x2="256" y2="340" stroke="#8DFFF0" stroke-width="10" opacity="0.6"/>
  <line x1="133.3" y1="378.7" x2="172" y2="340" stroke="#8DFFF0" stroke-width="10" opacity="0.6"/>
  <line x1="84" y1="256" x2="172" y2="256" stroke="#8DFFF0" stroke-width="10" opacity="0.6"/>
  <line x1="133.3" y1="133.3" x2="172" y2="172" stroke="#8DFFF0" stroke-width="10" opacity="0.6"/>
  
  <!-- Additional detail for large icon -->
  <circle cx="256" cy="256" r="120" fill="none" stroke="#8DFFF0" stroke-width="2" opacity="0.3"/>
  <circle cx="256" cy="256" r="96" fill="none" stroke="#8DFFF0" stroke-width="2" opacity="0.2"/>
</svg>
